<?xml version="1.0" encoding="UTF-8" standalone="no"?>
<!-- Created with Inkscape (http://www.inkscape.org/) -->

<svg
   xmlns:dc="http://purl.org/dc/elements/1.1/"
   xmlns:cc="http://creativecommons.org/ns#"
   xmlns:rdf="http://www.w3.org/1999/02/22-rdf-syntax-ns#"
   xmlns:svg="http://www.w3.org/2000/svg"
   xmlns="http://www.w3.org/2000/svg"
   xmlns:xlink="http://www.w3.org/1999/xlink"
   xmlns:sodipodi="http://sodipodi.sourceforge.net/DTD/sodipodi-0.dtd"
   xmlns:inkscape="http://www.inkscape.org/namespaces/inkscape"
   width="921.46875"
   height="460.875"
   id="svg3451"
   version="1.1"
   inkscape:version="0.48.3.1 r9886"
   sodipodi:docname="thumb.svg">
  <defs
     id="defs3453">
    <linearGradient
       gradientTransform="translate(-0.12160511,59.167907)"
       gradientUnits="userSpaceOnUse"
       y2="1352.2642"
       x2="1318.7738"
       y1="313.1637"
       x1="374.48233"
       id="linearGradient4550"
       xlink:href="#linearGradient4544"
       inkscape:collect="always" />
    <linearGradient
       id="linearGradient4544">
      <stop
         id="stop4546"
         offset="0"
         style="stop-color:#ffffff;stop-opacity:1;" />
      <stop
         id="stop4548"
         offset="1"
         style="stop-color:#e6d97e;stop-opacity:1;" />
    </linearGradient>
    <linearGradient
       gradientTransform="translate(-0.0994852,58.373194)"
       gradientUnits="userSpaceOnUse"
       y2="-164.8219"
       x2="150.4756"
       y1="598.3631"
       x1="1004.4122"
       id="linearGradient4613"
       xlink:href="#linearGradient4607"
       inkscape:collect="always" />
    <linearGradient
       id="linearGradient4607">
      <stop
         id="stop4609"
         offset="0"
         style="stop-color:#ffffff;stop-opacity:0;" />
      <stop
         id="stop4611"
         offset="1"
         style="stop-color:#ff9ecc;stop-opacity:1;" />
    </linearGradient>
  </defs>
  <sodipodi:namedview
     inkscape:document-units="mm"
     pagecolor="#ffffff"
     bordercolor="#666666"
     borderopacity="1.0"
     inkscape:pageopacity="0.0"
     inkscape:pageshadow="2"
     inkscape:zoom="0.43415837"
     inkscape:cx="363.3909"
     inkscape:cy="144.45305"
     inkscape:current-layer="g3670"
     id="namedview3455"
     showgrid="false"
     units="mm"
     fit-margin-top="0"
     fit-margin-left="0"
     fit-margin-right="0"
     fit-margin-bottom="0"
     inkscape:window-width="1280"
     inkscape:window-height="972"
     inkscape:window-x="-8"
     inkscape:window-y="-8"
     inkscape:window-maximized="1" />
  <metadata
     id="metadata3457">
    <rdf:RDF>
      <cc:Work
         rdf:about="">
        <dc:format>image/svg+xml</dc:format>
        <dc:type
           rdf:resource="http://purl.org/dc/dcmitype/StillImage" />
        <dc:title />
      </cc:Work>
    </rdf:RDF>
  </metadata>
  <g
     inkscape:label="Layer 1"
     inkscape:groupmode="layer"
     id="layer1"
     transform="translate(-85.051248,-226.53847)">
    <g
       transform="translate(-14.073752,-1.6802754)"
       id="layer1-1"
       inkscape:label="Layer 1">
      <rect
         y="228.33693"
         x="99.228119"
         height="460.62991"
         width="921.25983"
         id="rect4485"
         style="fill:url(#linearGradient4550);fill-opacity:1;stroke:#ffffff;stroke-width:0.23;stroke-miterlimit:4;stroke-opacity:0;stroke-dasharray:none" />
      <rect
         y="228.33693"
         x="99.228119"
         height="460.62991"
         width="921.25983"
         id="rect4485-6"
         style="fill:url(#linearGradient4613);fill-opacity:1;stroke:#ffffff;stroke-width:0.23;stroke-miterlimit:4;stroke-opacity:0;stroke-dasharray:none" />
      <g
         id="g3670"
         transform="matrix(2.527186,0,0,2.527186,173.32897,-312.4119)">
        <circle
           id="circle3676"
           class="circle"
           r="2.2727273"
           cy="355.09091"
           cx="18.068182"
           sodipodi:cx="18.068182"
           sodipodi:cy="355.09091"
           sodipodi:rx="2.2727273"
           sodipodi:ry="2.2727273"
           style="fill:#0000ff;stroke:#808080"
           d="m 20.340909,355.09091 c 0,1.25519 -1.017534,2.27273 -2.272727,2.27273 -1.255193,0 -2.272727,-1.01754 -2.272727,-2.27273 0,-1.25519 1.017534,-2.27273 2.272727,-2.27273 1.255193,0 2.272727,1.01754 2.272727,2.27273 z">
          <title
             id="title3678">server:GALEXGR6database:GALEXGR6AVGof rows:4545454.5</title>
        </circle>
        <circle
           id="circle3680"
           class="circle"
           r="2.3159609"
           cy="338.18182"
           cx="36.136364"
           sodipodi:cx="36.136364"
           sodipodi:cy="338.18182"
           sodipodi:rx="2.3159609"
           sodipodi:ry="2.3159609"
           style="fill:#0000ff;stroke:#808080"
           d="m 38.452325,338.18182 c 0,1.27907 -1.036891,2.31596 -2.315961,2.31596 -1.27907,0 -2.315961,-1.03689 -2.315961,-2.31596 0,-1.27907 1.036891,-2.31596 2.315961,-2.31596 1.27907,0 2.315961,1.03689 2.315961,2.31596 z">
          <title
             id="title3682">server:DR2_QUICKdatabase:BESTDR2AVGof rows:5266015.1482</title>
        </circle>
        <circle
           id="circle3684"
           class="circle"
           r="4"
           cy="321.27274"
           cx="54.204544"
           sodipodi:cx="54.204544"
           sodipodi:cy="321.27274"
           sodipodi:rx="4"
           sodipodi:ry="4"
           style="fill:#0000ff;stroke:#808080"
           d="m 58.204544,321.27274 c 0,2.20913 -1.790861,4 -4,4 -2.209139,0 -4,-1.79087 -4,-4 0,-2.20914 1.790861,-4 4,-4 2.209139,0 4,1.79086 4,4 z">
          <title
             id="title3686">server:DR5database:BESTDR5AVGof rows:33333333</title>
        </circle>
        <circle
           id="circle3688"
           class="circle"
           r="8"
           cy="304.36365"
           cx="72.272728"
           sodipodi:cx="72.272728"
           sodipodi:cy="304.36365"
           sodipodi:rx="8"
           sodipodi:ry="8"
           style="fill:#0000ff;stroke:#808080"
           d="m 80.272728,304.36365 c 0,4.41828 -3.581722,8 -8,8 -4.418278,0 -8,-3.58172 -8,-8 0,-4.41828 3.581722,-8 8,-8 4.418278,0 8,3.58172 8,8 z">
          <title
             id="title3690">server:TESTDR8 LONGdatabase:TESTDR8AVGof rows:99999999</title>
        </circle>
        <circle
           id="circle3692"
           class="circle"
           r="2.0000012"
           cy="287.45456"
           cx="90.340912"
           sodipodi:cx="90.340912"
           sodipodi:cy="287.45456"
           sodipodi:rx="2.0000012"
           sodipodi:ry="2.0000012"
           style="fill:#0000ff;stroke:#808080"
           d="m 92.340913,287.45456 c 0,1.10457 -0.895431,2 -2.000001,2 -1.10457,0 -2.000001,-0.89543 -2.000001,-2 0,-1.10457 0.895431,-2 2.000001,-2 1.10457,0 2.000001,0.89543 2.000001,2 z">
          <title
             id="title3694">server:SDSS2Adatabase:BESTDR7AVGof rows:21.1831</title>
        </circle>
        <circle
           id="circle3700"
           class="circle"
           r="8"
           cy="338.18182"
           cx="126.47727"
           sodipodi:cx="126.47727"
           sodipodi:cy="338.18182"
           sodipodi:rx="8"
           sodipodi:ry="8"
           style="fill:#0000ff;stroke:#808080"
           d="m 134.47727,338.18182 c 0,4.41828 -3.58172,8 -8,8 -4.41828,0 -8,-3.58172 -8,-8 0,-4.41827 3.58172,-8 8,-8 4.41828,0 8,3.58173 8,8 z">
          <title
             id="title3702">server:DR2_LONGdatabase:BESTDR2AVGof rows:99999999</title>
        </circle>
        <circle
           id="circle3704"
           class="circle"
           r="4.1145678"
           cy="321.27274"
           cx="144.54546"
           sodipodi:cx="144.54546"
           sodipodi:cy="321.27274"
           sodipodi:rx="4.1145678"
           sodipodi:ry="4.1145678"
           style="fill:#0000ff;stroke:#808080"
           d="m 148.66002,321.27274 c 0,2.27241 -1.84215,4.11456 -4.11456,4.11456 -2.27242,0 -4.11457,-1.84215 -4.11457,-4.11456 0,-2.27242 1.84215,-4.11457 4.11457,-4.11457 2.27241,0 4.11456,1.84215 4.11456,4.11457 z">
          <title
             id="title3706">server:DR5 LONGdatabase:BESTDR5AVGof rows:35242794</title>
        </circle>
        <circle
           id="circle3708"
           class="circle"
           r="2.0000005"
           cy="270.54544"
           cx="90.340912"
           sodipodi:cx="90.340912"
           sodipodi:cy="270.54544"
           sodipodi:rx="2.0000005"
           sodipodi:ry="2.0000005"
           style="fill:#0000ff;stroke:#808080"
           d="m 92.340912,270.54544 c 0,1.10457 -0.89543,2 -2,2 -1.10457,0 -2.000001,-0.89543 -2.000001,-2 0,-1.10457 0.895431,-2 2.000001,-2 1.10457,0 2,0.89543 2,2 z">
          <title
             id="title3710">server:SDSS2Adatabase:BESTDR1AVGof rows:9.9285</title>
        </circle>
        <circle
           id="circle3712"
           class="circle"
           r="3.7142856"
           cy="253.63637"
           cx="162.61363"
           sodipodi:cx="162.61363"
           sodipodi:cy="253.63637"
           sodipodi:rx="3.7142856"
           sodipodi:ry="3.7142856"
           style="fill:#0000ff;stroke:#808080"
           d="m 166.32792,253.63637 c 0,2.05134 -1.66294,3.71428 -3.71429,3.71428 -2.05134,0 -3.71428,-1.66294 -3.71428,-3.71428 0,-2.05135 1.66294,-3.71429 3.71428,-3.71429 2.05135,0 3.71429,1.66294 3.71429,3.71429 z">
          <title
             id="title3714">server:DR6database:BESTDR6AVGof rows:28571428.2857</title>
        </circle>
        <circle
           id="circle3716"
           class="circle"
           r="2"
           cy="270.54544"
           cx="180.68182"
           sodipodi:cx="180.68182"
           sodipodi:cy="270.54544"
           sodipodi:rx="2"
           sodipodi:ry="2"
           style="fill:#0000ff;stroke:#808080"
           d="m 182.68182,270.54544 c 0,1.10457 -0.89543,2 -2,2 -1.10457,0 -2,-0.89543 -2,-2 0,-1.10457 0.89543,-2 2,-2 1.10457,0 2,0.89543 2,2 z">
          <title
             id="title3718">server:DR1_LONGdatabase:BESTDR1AVGof rows:1</title>
        </circle>
        <circle
           id="circle3720"
           class="circle"
           r="2.0000002"
           cy="236.72728"
           cx="90.340912"
           sodipodi:cx="90.340912"
           sodipodi:cy="236.72728"
           sodipodi:rx="2.0000002"
           sodipodi:ry="2.0000002"
           style="fill:#0000ff;stroke:#808080"
           d="m 92.340912,236.72728 c 0,1.10457 -0.895431,2 -2,2 -1.10457,0 -2,-0.89543 -2,-2 0,-1.10457 0.89543,-2 2,-2 1.104569,0 2,0.89543 2,2 z">
          <title
             id="title3722">server:SDSS2Adatabase:SKYSERVERV3AVGof rows:3.2085</title>
        </circle>
        <circle
           id="circle3724"
           class="circle"
           r="2.0000012"
           cy="219.81818"
           cx="198.75"
           sodipodi:cx="198.75"
           sodipodi:cy="219.81818"
           sodipodi:rx="2.0000012"
           sodipodi:ry="2.0000012"
           style="fill:#0000ff;stroke:#808080"
           d="m 200.75,219.81818 c 0,1.10457 -0.89543,2 -2,2 -1.10457,0 -2,-0.89543 -2,-2 0,-1.10457 0.89543,-2 2,-2 1.10457,0 2,0.89543 2,2 z">
          <title
             id="title3726">server:SDSSSQL022database:SEGUEDR6AVGof rows:17.8902</title>
        </circle>
        <circle
           id="circle3728"
           class="circle"
           r="2.0000005"
           cy="270.54544"
           cx="216.81818"
           sodipodi:cx="216.81818"
           sodipodi:cy="270.54544"
           sodipodi:rx="2.0000005"
           sodipodi:ry="2.0000005"
           style="fill:#0000ff;stroke:#808080"
           d="m 218.81818,270.54544 c 0,1.10457 -0.89543,2 -2,2 -1.10457,0 -2,-0.89543 -2,-2 0,-1.10457 0.89543,-2 2,-2 1.10457,0 2,0.89543 2,2 z">
          <title
             id="title3730">server:SDSS2Bdatabase:BESTDR1AVGof rows:7.8632</title>
        </circle>
        <circle
           id="circle3732"
           class="circle"
           r="3.2908373"
           cy="287.45456"
           cx="234.88637"
           sodipodi:cx="234.88637"
           sodipodi:cy="287.45456"
           sodipodi:rx="3.2908373"
           sodipodi:ry="3.2908373"
           style="fill:#0000ff;stroke:#808080"
           d="m 238.17721,287.45456 c 0,1.81748 -1.47336,3.29084 -3.29084,3.29084 -1.81748,0 -3.29084,-1.47336 -3.29084,-3.29084 0,-1.81748 1.47336,-3.29084 3.29084,-3.29084 1.81748,0 3.29084,1.47336 3.29084,3.29084 z">
          <title
             id="title3734">server:DR7_QUICKdatabase:BESTDR7AVGof rows:21513956.2988</title>
        </circle>
        <circle
           id="circle3772"
           class="circle"
           r="2.0000017"
           cy="338.18182"
           cx="216.81818"
           sodipodi:cx="216.81818"
           sodipodi:cy="338.18182"
           sodipodi:rx="2.0000017"
           sodipodi:ry="2.0000017"
           style="fill:#0000ff;stroke:#808080"
           d="m 218.81818,338.18182 c 0,1.10457 -0.89543,2.00001 -2,2.00001 -1.10457,0 -2.00001,-0.89544 -2.00001,-2.00001 0,-1.10457 0.89544,-2 2.00001,-2 1.10457,0 2,0.89543 2,2 z">
          <title
             id="title3774">server:SDSS2Bdatabase:BESTDR2AVGof rows:29.4324</title>
        </circle>
        <circle
           id="circle3784"
           class="circle"
           r="2.0000012"
           cy="253.63637"
           cx="90.340912"
           sodipodi:cx="90.340912"
           sodipodi:cy="253.63637"
           sodipodi:rx="2.0000012"
           sodipodi:ry="2.0000012"
           style="fill:#0000ff;stroke:#808080"
           d="m 92.340913,253.63637 c 0,1.10457 -0.895431,2 -2.000001,2 -1.10457,0 -2.000001,-0.89543 -2.000001,-2 0,-1.10457 0.895431,-2 2.000001,-2 1.10457,0 2.000001,0.89543 2.000001,2 z">
          <title
             id="title3786">server:SDSS2Adatabase:BESTDR6AVGof rows:19.6057</title>
        </circle>
        <circle
           id="circle3804"
           class="circle"
           r="2.0000126"
           cy="287.45456"
           cx="271.02274"
           sodipodi:cx="271.02274"
           sodipodi:cy="287.45456"
           sodipodi:rx="2.0000126"
           sodipodi:ry="2.0000126"
           style="fill:#0000ff;stroke:#808080"
           d="m 273.02275,287.45456 c 0,1.10458 -0.89544,2.00001 -2.00001,2.00001 -1.10458,0 -2.00002,-0.89543 -2.00002,-2.00001 0,-1.10458 0.89544,-2.00001 2.00002,-2.00001 1.10457,0 2.00001,0.89543 2.00001,2.00001 z">
          <title
             id="title3806">server:SDSSSQL023database:BESTDR7AVGof rows:211.1339</title>
        </circle>
        <circle
           id="circle3848"
           class="circle"
           r="2.0000014"
           cy="287.45456"
           cx="216.81818"
           sodipodi:cx="216.81818"
           sodipodi:cy="287.45456"
           sodipodi:rx="2.0000014"
           sodipodi:ry="2.0000014"
           style="fill:#0000ff;stroke:#808080"
           d="m 218.81818,287.45456 c 0,1.10457 -0.89543,2 -2,2 -1.10457,0 -2.00001,-0.89543 -2.00001,-2 0,-1.10457 0.89544,-2 2.00001,-2 1.10457,0 2,0.89543 2,2 z">
          <title
             id="title3850">server:SDSS2Bdatabase:BESTDR7AVGof rows:22.0855</title>
        </circle>
        <circle
           id="circle3868"
           class="circle"
           r="2.0000002"
           cy="338.18182"
           cx="90.340912"
           sodipodi:cx="90.340912"
           sodipodi:cy="338.18182"
           sodipodi:rx="2.0000002"
           sodipodi:ry="2.0000002"
           style="fill:#0000ff;stroke:#808080"
           d="m 92.340912,338.18182 c 0,1.10457 -0.895431,2 -2,2 -1.10457,0 -2,-0.89543 -2,-2 0,-1.10457 0.89543,-2 2,-2 1.104569,0 2,0.89543 2,2 z">
          <title
             id="title3870">server:SDSS2Adatabase:BESTDR2AVGof rows:2.8278</title>
        </circle>
        <g
           transform="translate(0,372)"
           id="x-axis"
           class="axis">
          <g
             id="g3899"
             transform="translate(18.068182,0)">
            <line
               id="line3901"
               x2="0"
               y2="6"
               class="tick"
               x1="0"
               y1="0"
               style="fill:none;stroke:#000000" />
            <text
               id="text3903"
               transform="matrix(0,1,-1,0,0,0)"
               class="x-axis-text"
               style="font-size:11px;font-family:sans-serif"
               x="3"
               y="4">GALEXGR6</text>
          </g>
          <g
             id="g3905"
             transform="translate(36.136364,0)">
            <line
               id="line3907"
               x2="0"
               y2="6"
               class="tick"
               x1="0"
               y1="0"
               style="fill:none;stroke:#000000" />
            <text
               id="text3909"
               transform="matrix(0,1,-1,0,0,0)"
               class="x-axis-text"
               style="font-size:11px;font-family:sans-serif"
               x="3"
               y="4">DR2_QUICK</text>
          </g>
          <g
             id="g3911"
             transform="translate(54.204545,0)">
            <line
               id="line3913"
               x2="0"
               y2="6"
               class="tick"
               x1="0"
               y1="0"
               style="fill:none;stroke:#000000" />
            <text
               id="text3915"
               transform="matrix(0,1,-1,0,0,0)"
               class="x-axis-text"
               style="font-size:11px;font-family:sans-serif"
               x="3"
               y="4">DR5</text>
          </g>
          <g
             id="g3917"
             transform="translate(72.272727,0)">
            <line
               id="line3919"
               x2="0"
               y2="6"
               class="tick"
               x1="0"
               y1="0"
               style="fill:none;stroke:#000000" />
            <text
               id="text3921"
               transform="matrix(0,1,-1,0,0,0)"
               class="x-axis-text"
               style="font-size:11px;font-family:sans-serif"
               x="3"
               y="4">TESTDR8 LONG</text>
          </g>
          <g
             id="g3923"
             transform="translate(90.340909,0)">
            <line
               id="line3925"
               x2="0"
               y2="6"
               class="tick"
               x1="0"
               y1="0"
               style="fill:none;stroke:#000000" />
            <text
               id="text3927"
               transform="matrix(0,1,-1,0,0,0)"
               class="x-axis-text"
               style="font-size:11px;font-family:sans-serif"
               x="3"
               y="4">SDSS2A</text>
          </g>
          <g
             id="g3929"
             transform="translate(108.40909,0)">
            <line
               id="line3931"
               x2="0"
               y2="6"
               class="tick"
               x1="0"
               y1="0"
               style="fill:none;stroke:#000000" />
            <text
               id="text3933"
               transform="matrix(0,1,-1,0,0,0)"
               class="x-axis-text"
               style="font-size:11px;font-family:sans-serif"
               x="3"
               y="4">SDSS3D</text>
          </g>
          <g
             id="g3935"
             transform="translate(126.47727,0)">
            <line
               id="line3937"
               x2="0"
               y2="6"
               class="tick"
               x1="0"
               y1="0"
               style="fill:none;stroke:#000000" />
            <text
               id="text3939"
               transform="matrix(0,1,-1,0,0,0)"
               class="x-axis-text"
               style="font-size:11px;font-family:sans-serif"
               x="3"
               y="4">DR2_LONG</text>
          </g>
          <g
             id="g3941"
             transform="translate(144.54545,0)">
            <line
               id="line3943"
               x2="0"
               y2="6"
               class="tick"
               x1="0"
               y1="0"
               style="fill:none;stroke:#000000" />
            <text
               id="text3945"
               transform="matrix(0,1,-1,0,0,0)"
               class="x-axis-text"
               style="font-size:11px;font-family:sans-serif"
               x="3"
               y="4">DR5 LONG</text>
          </g>
          <g
             id="g3947"
             transform="translate(162.61364,0)">
            <line
               id="line3949"
               x2="0"
               y2="6"
               class="tick"
               x1="0"
               y1="0"
               style="fill:none;stroke:#000000" />
            <text
               id="text3951"
               transform="matrix(0,1,-1,0,0,0)"
               class="x-axis-text"
               style="font-size:11px;font-family:sans-serif"
               x="3"
               y="4">DR6</text>
          </g>
          <g
             id="g3953"
             transform="translate(180.68182,0)">
            <line
               id="line3955"
               x2="0"
               y2="6"
               class="tick"
               x1="0"
               y1="0"
               style="fill:none;stroke:#000000" />
            <text
               id="text3957"
               transform="matrix(0,1,-1,0,0,0)"
               class="x-axis-text"
               style="font-size:11px;font-family:sans-serif"
               x="3"
               y="4">DR1_LONG</text>
          </g>
          <g
             id="g3959"
             transform="translate(198.75,0)">
            <line
               id="line3961"
               x2="0"
               y2="6"
               class="tick"
               x1="0"
               y1="0"
               style="fill:none;stroke:#000000" />
            <text
               id="text3963"
               transform="matrix(0,1,-1,0,0,0)"
               class="x-axis-text"
               style="font-size:11px;font-family:sans-serif"
               x="3"
               y="4">SDSSSQL022</text>
          </g>
          <g
             id="g3965"
             transform="translate(216.81818,0)">
            <line
               id="line3967"
               x2="0"
               y2="6"
               class="tick"
               x1="0"
               y1="0"
               style="fill:none;stroke:#000000" />
            <text
               id="text3969"
               transform="matrix(0,1,-1,0,0,0)"
               class="x-axis-text"
               style="font-size:11px;font-family:sans-serif"
               x="3"
               y="4">SDSS2B</text>
          </g>
          <g
             id="g3971"
             transform="translate(234.88636,0)">
            <line
               id="line3973"
               x2="0"
               y2="6"
               class="tick"
               x1="0"
               y1="0"
               style="fill:none;stroke:#000000" />
            <text
               id="text3975"
               transform="matrix(0,1,-1,0,0,0)"
               class="x-axis-text"
               style="font-size:11px;font-family:sans-serif"
               x="3"
               y="4">DR7_QUICK</text>
          </g>
          <g
             id="g3977"
             transform="translate(252.95455,0)">
            <line
               id="line3979"
               x2="0"
               y2="6"
               class="tick"
               x1="0"
               y1="0"
               style="fill:none;stroke:#000000" />
            <text
               id="text3981"
               transform="matrix(0,1,-1,0,0,0)"
               class="x-axis-text"
               style="font-size:11px;font-family:sans-serif"
               x="3"
               y="4">SDSS3C</text>
          </g>
          <g
             id="g3983"
             transform="translate(271.02273,0)">
            <line
               id="line3985"
               x2="0"
               y2="6"
               class="tick"
               x1="0"
               y1="0"
               style="fill:none;stroke:#000000" />
            <text
               id="text3987"
               transform="matrix(0,1,-1,0,0,0)"
               class="x-axis-text"
               style="font-size:11px;font-family:sans-serif"
               x="3"
               y="4">SDSSSQL023</text>
          </g>
          <g
             id="g3989"
             transform="translate(289.09091,0)">
            <line
               id="line3991"
               x2="0"
               y2="6"
               class="tick"
               x1="0"
               y1="0"
               style="fill:none;stroke:#000000" />
            <text
               id="text3993"
               transform="matrix(0,1,-1,0,0,0)"
               class="x-axis-text"
               style="font-size:11px;font-family:sans-serif"
               x="3"
               y="4">SDSS3F</text>
          </g>
          <g
             id="g3995"
             transform="translate(307.15909,0)">
            <line
               id="line3997"
               x2="0"
               y2="6"
               class="tick"
               x1="0"
               y1="0"
               style="fill:none;stroke:#000000" />
            <text
               id="text3999"
               transform="matrix(0,1,-1,0,0,0)"
               class="x-axis-text"
               style="font-size:11px;font-family:sans-serif"
               x="3"
               y="4">DR9_LONG</text>
          </g>
          <g
             id="g4001"
             transform="translate(325.22727,-2.438621e-8)">
            <line
               id="line4003"
               x2="0"
               y2="6"
               class="tick"
               x1="0"
               y1="0"
               style="fill:none;stroke:#000000" />
            <text
               id="text4005"
               transform="matrix(0,1,-1,0,0,0)"
               class="x-axis-text"
               style="font-size:11px;font-family:sans-serif"
               x="3"
               y="4">SDSS3A</text>
          </g>
          <path
             id="path4163"
             d="M 0,6 V 0 h 795 v 6"
             class="domain"
             inkscape:connector-curvature="0"
             style="fill:none;stroke:#000000" />
        </g>
        <g
           id="y-axis"
           class="axis">
          <g
             id="g4172"
             transform="translate(0,355.09091)">
            <line
               id="line4174"
               y2="0"
               x2="-6"
               class="tick"
               x1="0"
               y1="0"
               style="fill:none;stroke:#000000" />
            <text
               id="text4176"
               style="font-size:11px;text-anchor:end;font-family:sans-serif"
               dy="2.1475846e-038"
               y="0"
               x="-9">GALEXGR6</text>
          </g>
          <g
             id="g4178"
             transform="translate(0,338.18182)">
            <line
               id="line4180"
               y2="0"
               x2="-6"
               class="tick"
               x1="0"
               y1="0"
               style="fill:none;stroke:#000000" />
            <text
               id="text4182"
               style="font-size:11px;text-anchor:end;font-family:sans-serif"
               dy="2.1475846e-038"
               y="0"
               x="-9">BESTDR2</text>
          </g>
          <g
             id="g4184"
             transform="translate(0,321.27273)">
            <line
               id="line4186"
               y2="0"
               x2="-6"
               class="tick"
               x1="0"
               y1="0"
               style="fill:none;stroke:#000000" />
            <text
               id="text4188"
               style="font-size:11px;text-anchor:end;font-family:sans-serif"
               dy="2.1475846e-038"
               y="0"
               x="-9">BESTDR5</text>
          </g>
          <g
             id="g4190"
             transform="translate(0,304.36364)">
            <line
               id="line4192"
               y2="0"
               x2="-6"
               class="tick"
               x1="0"
               y1="0"
               style="fill:none;stroke:#000000" />
            <text
               id="text4194"
               style="font-size:11px;text-anchor:end;font-family:sans-serif"
               dy="2.1475846e-038"
               y="0"
               x="-9">TESTDR8</text>
          </g>
          <g
             id="g4196"
             transform="translate(0,287.45455)">
            <line
               id="line4198"
               y2="0"
               x2="-6"
               class="tick"
               x1="0"
               y1="0"
               style="fill:none;stroke:#000000" />
            <text
               id="text4200"
               style="font-size:11px;text-anchor:end;font-family:sans-serif"
               dy="2.1475846e-038"
               y="0"
               x="-9">BESTDR7</text>
          </g>
          <g
             id="g4202"
             transform="translate(0,270.54545)">
            <line
               id="line4204"
               y2="0"
               x2="-6"
               class="tick"
               x1="0"
               y1="0"
               style="fill:none;stroke:#000000" />
            <text
               id="text4206"
               style="font-size:11px;text-anchor:end;font-family:sans-serif"
               dy="2.1475846e-038"
               y="0"
               x="-9">BESTDR1</text>
          </g>
          <g
             id="g4208"
             transform="translate(0,253.63636)">
            <line
               id="line4210"
               y2="0"
               x2="-6"
               class="tick"
               x1="0"
               y1="0"
               style="fill:none;stroke:#000000" />
            <text
               id="text4212"
               style="font-size:11px;text-anchor:end;font-family:sans-serif"
               dy="2.1475846e-038"
               y="0"
               x="-9">BESTDR6</text>
          </g>
          <g
             id="g4214"
             transform="translate(0,236.72727)">
            <line
               id="line4216"
               y2="0"
               x2="-6"
               class="tick"
               x1="0"
               y1="0"
               style="fill:none;stroke:#000000" />
            <text
               id="text4218"
               style="font-size:11px;text-anchor:end;font-family:sans-serif"
               dy="2.1475846e-038"
               y="0"
               x="-9">SKYSERVERV3</text>
          </g>
          <g
             id="g4220"
             transform="translate(0,219.81818)">
            <line
               id="line4222"
               y2="0"
               x2="-6"
               class="tick"
               x1="0"
               y1="0"
               style="fill:none;stroke:#000000" />
            <text
               id="text4224"
               style="font-size:11px;text-anchor:end;font-family:sans-serif"
               dy="2.1475846e-038"
               y="0"
               x="-9">SEGUEDR6</text>
          </g>
          <path
             id="path4304"
             d="M -6,0 H 0 V 372 H -6"
             class="domain"
             inkscape:connector-curvature="0"
             style="fill:none;stroke:#000000" />
        </g>
      </g>
    </g>
  </g>
  <style
     id="style7697">.axis path,.axis line {    fill: none;    stroke: black;    shape-rendering: crispEdges;}.axis text {    font-family: sans-serif;    font-size: 11px;}.circle {    stroke: grey;    fill: blue;}</style>
</svg>
