<?xml version="1.0" encoding="UTF-8" standalone="no"?>
<!-- Created with Inkscape (http://www.inkscape.org/) -->

<svg
   xmlns:dc="http://purl.org/dc/elements/1.1/"
   xmlns:cc="http://creativecommons.org/ns#"
   xmlns:rdf="http://www.w3.org/1999/02/22-rdf-syntax-ns#"
   xmlns:svg="http://www.w3.org/2000/svg"
   xmlns="http://www.w3.org/2000/svg"
   xmlns:xlink="http://www.w3.org/1999/xlink"
   xmlns:sodipodi="http://sodipodi.sourceforge.net/DTD/sodipodi-0.dtd"
   xmlns:inkscape="http://www.inkscape.org/namespaces/inkscape"
   width="320.125"
   height="160.09375"
   id="svg2"
   version="1.1"
   inkscape:version="0.48.3.1 r9886"
   sodipodi:docname="thumb.svg">
  <defs
     id="defs4">
    <linearGradient
       id="linearGradient4068">
      <stop
         style="stop-color:#f9adcb;stop-opacity:0.91620111;"
         offset="0"
         id="stop4070" />
      <stop
         style="stop-color:#4cffa2;stop-opacity:0.50837988;"
         offset="1"
         id="stop4072" />
    </linearGradient>
    <radialGradient
       inkscape:collect="always"
       xlink:href="#linearGradient4068"
       id="radialGradient4074"
       cx="231.42857"
       cy="253.79076"
       fx="231.42857"
       fy="253.79076"
       r="160"
       gradientTransform="matrix(1.6716382,0.26746876,-0.14764449,0.922755,-99.394032,257.70414)"
       gradientUnits="userSpaceOnUse" />
  </defs>
  <sodipodi:namedview
     id="base"
     pagecolor="#ffffff"
     bordercolor="#666666"
     borderopacity="1.0"
     inkscape:pageopacity="0.0"
     inkscape:pageshadow="2"
     inkscape:zoom="0.98994949"
     inkscape:cx="116.58368"
     inkscape:cy="166.43876"
     inkscape:document-units="px"
     inkscape:current-layer="layer1"
     showgrid="false"
     inkscape:window-width="1280"
     inkscape:window-height="972"
     inkscape:window-x="-8"
     inkscape:window-y="-8"
     inkscape:window-maximized="1"
     fit-margin-top="0"
     fit-margin-left="0"
     fit-margin-right="0"
     fit-margin-bottom="0" />
  <metadata
     id="metadata7">
    <rdf:RDF>
      <cc:Work
         rdf:about="">
        <dc:format>image/svg+xml</dc:format>
        <dc:type
           rdf:resource="http://purl.org/dc/dcmitype/StillImage" />
        <dc:title />
      </cc:Work>
    </rdf:RDF>
  </metadata>
  <g
     inkscape:label="Ebene 1"
     inkscape:groupmode="layer"
     id="layer1"
     transform="translate(-89.9375,-473.75)">
    <rect
       style="fill:url(#radialGradient4074);fill-opacity:1;stroke:#ffffff;stroke-width:0;stroke-miterlimit:4;stroke-opacity:0.39382240000000002;stroke-dasharray:none"
       id="rect3298"
       width="320"
       height="160"
       x="90.000008"
       y="473.79077" />
    <g
       id="g27438"
       transform="matrix(0.3813303,0,0,0.3813303,112.26269,428.98555)">
      <g
         id="g27239"
         class="circle"
         transform="translate(186.54071,538.89957)"
         style="stroke:#405040">
        <title
           id="title27241">hour:18 AVG of busy: 0.0013931385752440025</title>
        <circle
           id="circle27243"
           r="27.160244"
           style="fill:#bf92bb"
           cx="0"
           cy="0"
           sodipodi:cx="0"
           sodipodi:cy="0"
           sodipodi:rx="27.160244"
           sodipodi:ry="27.160244"
           d="M 27.160244,0 C 27.160244,15.000189 15.000189,27.160244 0,27.160244 -15.000189,27.160244 -27.160244,15.000189 -27.160244,0 c 0,-15.000189 12.160055,-27.160244 27.160244,-27.160244 15.000189,0 27.160244,12.160055 27.160244,27.160244 z" />
        <text
           id="text27245"
           class="data-text"
           dy="2.1475846e-038"
           style="text-anchor:middle">18</text>
      </g>
      <g
         id="g27247"
         class="circle"
         transform="translate(287.81667,95.283001)"
         style="stroke:#405040">
        <title
           id="title27249">hour:0 AVG of busy: 0.005266627778728829</title>
        <circle
           id="circle27251"
           r="52.808376"
           style="fill:#66ba28"
           cx="0"
           cy="0"
           sodipodi:cx="0"
           sodipodi:cy="0"
           sodipodi:rx="52.808376"
           sodipodi:ry="52.808376"
           d="M 52.808376,0 C 52.808376,29.165261 29.165261,52.808376 0,52.808376 -29.165261,52.808376 -52.808376,29.165261 -52.808376,0 c 0,-29.165261 23.643115,-52.808376 52.808376,-52.808376 29.165261,0 52.808376,23.643115 52.808376,52.808376 z" />
        <text
           id="text27253"
           class="data-text"
           dy="2.1475846e-038"
           style="text-anchor:middle">0</text>
      </g>
      <g
         id="g27255"
         class="circle"
         transform="translate(266.65712,218.99619)"
         style="stroke:#405040">
        <title
           id="title27257">hour:12 AVG of busy: 0.007575330637788109</title>
        <circle
           id="circle27259"
           r="63.334057"
           style="fill:#827daa"
           cx="0"
           cy="0"
           sodipodi:cx="0"
           sodipodi:cy="0"
           sodipodi:rx="63.334057"
           sodipodi:ry="63.334057"
           d="M 63.334057,0 C 63.334057,34.978434 34.978434,63.334057 0,63.334057 -34.978434,63.334057 -63.334057,34.978434 -63.334057,0 c 0,-34.978434 28.355623,-63.334057 63.334057,-63.334057 34.978434,0 63.334057,28.355623 63.334057,63.334057 z" />
        <text
           id="text27261"
           class="data-text"
           dy="2.1475846e-038"
           style="text-anchor:middle">12</text>
      </g>
      <g
         id="g27263"
         class="circle"
         transform="translate(565.64522,239.89026)"
         style="stroke:#405040">
        <title
           id="title27265">hour:2 AVG of busy: 0.005457772106960953</title>
        <circle
           id="circle27267"
           r="53.758137"
           style="fill:#efc94f"
           cx="0"
           cy="0"
           sodipodi:cx="0"
           sodipodi:cy="0"
           sodipodi:rx="53.758137"
           sodipodi:ry="53.758137"
           d="M 53.758137,0 C 53.758137,29.689799 29.689799,53.758137 0,53.758137 -29.689799,53.758137 -53.758137,29.689799 -53.758137,0 c 0,-29.689799 24.068338,-53.758137 53.758137,-53.758137 29.689799,0 53.758137,24.068338 53.758137,53.758137 z" />
        <text
           id="text27269"
           class="data-text"
           dy="2.1475846e-038"
           style="text-anchor:middle">2</text>
      </g>
      <g
         id="g27271"
         class="circle"
         transform="translate(301.62017,577.73046)"
         style="stroke:#405040">
        <title
           id="title27273">hour:17 AVG of busy: 0.0012642680144627294</title>
        <circle
           id="circle27275"
           r="25.873554"
           style="fill:#64acaf"
           cx="0"
           cy="0"
           sodipodi:cx="0"
           sodipodi:cy="0"
           sodipodi:rx="25.873554"
           sodipodi:ry="25.873554"
           d="M 25.873554,0 C 25.873554,14.289569 14.289569,25.873554 0,25.873554 -14.289569,25.873554 -25.873554,14.289569 -25.873554,0 c 0,-14.289569 11.583985,-25.873554 25.873554,-25.873554 14.289569,0 25.873554,11.583985 25.873554,25.873554 z" />
        <text
           id="text27277"
           class="data-text"
           dy="2.1475846e-038"
           style="text-anchor:middle">17</text>
      </g>
      <g
         id="g27279"
         class="circle"
         transform="translate(130.06537,428.4702)"
         style="stroke:#405040">
        <title
           id="title27281">hour:15 AVG of busy: 0.0016203603461839215</title>
        <circle
           id="circle27283"
           r="29.291548"
           style="fill:#39adf5"
           cx="0"
           cy="0"
           sodipodi:cx="0"
           sodipodi:cy="0"
           sodipodi:rx="29.291548"
           sodipodi:ry="29.291548"
           d="M 29.291548,0 C 29.291548,16.177275 16.177275,29.291548 0,29.291548 -16.177275,29.291548 -29.291548,16.177275 -29.291548,0 c 0,-16.177275 13.114273,-29.291548 29.291548,-29.291548 16.177275,0 29.291548,13.114273 29.291548,29.291548 z" />
        <text
           id="text27285"
           class="data-text"
           dy="2.1475846e-038"
           style="text-anchor:middle">15</text>
      </g>
      <g
         id="g27287"
         class="circle"
         transform="translate(224.94049,451.469)"
         style="stroke:#405040">
        <title
           id="title27289">hour:3 AVG of busy: 0.006566025825913316</title>
        <circle
           id="circle27291"
           r="58.964119"
           style="fill:#83afe3"
           cx="0"
           cy="0"
           sodipodi:cx="0"
           sodipodi:cy="0"
           sodipodi:rx="58.964119"
           sodipodi:ry="58.964119"
           d="M 58.964119,0 C 58.964119,32.564984 32.564984,58.964119 0,58.964119 -32.564984,58.964119 -58.964119,32.564984 -58.964119,0 c 0,-32.564984 26.399135,-58.964119 58.964119,-58.964119 32.564984,0 58.964119,26.399135 58.964119,58.964119 z" />
        <text
           id="text27293"
           class="data-text"
           dy="2.1475846e-038"
           style="text-anchor:middle">3</text>
      </g>
      <g
         id="g27295"
         class="circle"
         transform="translate(87.732079,370.59317)"
         style="stroke:#405040">
        <title
           id="title27297">hour:19 AVG of busy: 0.0020626055277480713</title>
        <circle
           id="circle27299"
           r="33.047955"
           style="fill:#ff355d"
           cx="0"
           cy="0"
           sodipodi:cx="0"
           sodipodi:cy="0"
           sodipodi:rx="33.047955"
           sodipodi:ry="33.047955"
           d="M 33.047955,0 C 33.047955,18.251881 18.251881,33.047955 0,33.047955 -18.251881,33.047955 -33.047955,18.251881 -33.047955,0 c 0,-18.251881 14.796074,-33.047955 33.047955,-33.047955 18.251881,0 33.047955,14.796074 33.047955,33.047955 z" />
        <text
           id="text27301"
           class="data-text"
           dy="2.1475846e-038"
           style="text-anchor:middle">19</text>
      </g>
      <g
         id="g27303"
         class="circle"
         transform="translate(510.02407,137.11767)"
         style="stroke:#405040">
        <title
           id="title27305">hour:4 AVG of busy: 0.005452699244352121</title>
        <circle
           id="circle27307"
           r="53.733147"
           style="fill:#bcb759"
           cx="0"
           cy="0"
           sodipodi:cx="0"
           sodipodi:cy="0"
           sodipodi:rx="53.733147"
           sodipodi:ry="53.733147"
           d="m 53.733147,0 c 0,29.675997 -24.05715,53.733147 -53.733147,53.733147 -29.675997,0 -53.733147,-24.05715 -53.733147,-53.733147 0,-29.675997 24.05715,-53.733147 53.733147,-53.733147 29.675997,0 53.733147,24.05715 53.733147,53.733147 z" />
        <text
           id="text27309"
           class="data-text"
           dy="2.1475846e-038"
           style="text-anchor:middle">4</text>
      </g>
      <g
         id="g27311"
         class="circle"
         transform="translate(403.38582,89.914151)"
         style="stroke:#405040">
        <title
           id="title27313">hour:6 AVG of busy: 0.005409155097216778</title>
        <circle
           id="circle27315"
           r="53.518166"
           style="fill:#33b3c3"
           cx="0"
           cy="0"
           sodipodi:cx="0"
           sodipodi:cy="0"
           sodipodi:rx="53.518166"
           sodipodi:ry="53.518166"
           d="M 53.518166,0 C 53.518166,29.557267 29.557267,53.518166 0,53.518166 -29.557267,53.518166 -53.518166,29.557267 -53.518166,0 c 0,-29.557267 23.960899,-53.518166 53.518166,-53.518166 29.557267,0 53.518166,23.960899 53.518166,53.518166 z" />
        <text
           id="text27317"
           class="data-text"
           dy="2.1475846e-038"
           style="text-anchor:middle">6</text>
      </g>
      <g
         id="g27319"
         class="circle"
         transform="translate(79.331864,290.80174)"
         style="stroke:#405040">
        <title
           id="title27321">hour:20 AVG of busy: 0.0027008805921863526</title>
        <circle
           id="circle27323"
           r="37.817184"
           style="fill:#4f9337"
           cx="0"
           cy="0"
           sodipodi:cx="0"
           sodipodi:cy="0"
           sodipodi:rx="37.817184"
           sodipodi:ry="37.817184"
           d="m 37.817184,0 c 0,20.885854 -16.93133,37.817184 -37.817184,37.817184 -20.885854,0 -37.817184,-16.93133 -37.817184,-37.817184 0,-20.885854 16.93133,-37.817184 37.817184,-37.817184 20.885854,0 37.817184,16.93133 37.817184,37.817184 z" />
        <text
           id="text27325"
           class="data-text"
           dy="2.1475846e-038"
           style="text-anchor:middle">20</text>
      </g>
      <g
         id="g27327"
         class="circle"
         transform="translate(343.94772,494.43325)"
         style="stroke:#405040">
        <title
           id="title27329">hour:5 AVG of busy: 0.006395612623110117</title>
        <circle
           id="circle27331"
           r="58.193916"
           style="fill:#4f3e7c"
           cx="0"
           cy="0"
           sodipodi:cx="0"
           sodipodi:cy="0"
           sodipodi:rx="58.193916"
           sodipodi:ry="58.193916"
           d="M 58.193916,0 C 58.193916,32.139613 32.139613,58.193916 0,58.193916 -32.139613,58.193916 -58.193916,32.139613 -58.193916,0 c 0,-32.139613 26.054303,-58.193916 58.193916,-58.193916 32.139613,0 58.193916,26.054303 58.193916,58.193916 z" />
        <text
           id="text27333"
           class="data-text"
           dy="2.1475846e-038"
           style="text-anchor:middle">5</text>
      </g>
      <g
         id="g27335"
         class="circle"
         transform="translate(183.7112,326.60402)"
         style="stroke:#405040">
        <title
           id="title27337">hour:21 AVG of busy: 0.007534782646661444</title>
        <circle
           id="circle27339"
           r="63.164326"
           style="fill:#ac436e"
           cx="0"
           cy="0"
           sodipodi:cx="0"
           sodipodi:cy="0"
           sodipodi:rx="63.164326"
           sodipodi:ry="63.164326"
           d="M 63.164326,0 C 63.164326,34.884694 34.884694,63.164326 0,63.164326 -34.884694,63.164326 -63.164326,34.884694 -63.164326,0 c 0,-34.884694 28.279632,-63.164326 63.164326,-63.164326 34.884694,0 63.164326,28.279632 63.164326,63.164326 z" />
        <text
           id="text27341"
           class="data-text"
           dy="2.1475846e-038"
           style="text-anchor:middle">21</text>
      </g>
      <g
         id="g27343"
         class="circle"
         transform="translate(624.49499,341.14633)"
         style="stroke:#405040">
        <title
           id="title27345">hour:7 AVG of busy: 0.005505019857832534</title>
        <circle
           id="circle27347"
           r="53.990326"
           style="fill:#2b2477"
           cx="0"
           cy="0"
           sodipodi:cx="0"
           sodipodi:cy="0"
           sodipodi:rx="53.990326"
           sodipodi:ry="53.990326"
           d="M 53.990326,0 C 53.990326,29.818034 29.818034,53.990326 0,53.990326 -29.818034,53.990326 -53.990326,29.818034 -53.990326,0 c 0,-29.818034 24.172292,-53.990326 53.990326,-53.990326 29.818034,0 53.990326,24.172292 53.990326,53.990326 z" />
        <text
           id="text27349"
           class="data-text"
           dy="2.1475846e-038"
           style="text-anchor:middle">7</text>
      </g>
      <g
         id="g27351"
         class="circle"
         transform="translate(408.48256,221.85409)"
         style="stroke:#405040">
        <title
           id="title27353">hour:11 AVG of busy: 0.009031254976800905</title>
        <circle
           id="circle27355"
           r="69.152924"
           style="fill:#e9e97f"
           cx="0"
           cy="0"
           sodipodi:cx="0"
           sodipodi:cy="0"
           sodipodi:rx="69.152924"
           sodipodi:ry="69.152924"
           d="M 69.152924,0 C 69.152924,38.192105 38.192105,69.152924 0,69.152924 -38.192105,69.152924 -69.152924,38.192105 -69.152924,0 c 0,-38.192105 30.960819,-69.152924 69.152924,-69.152924 38.192105,0 69.152924,30.960819 69.152924,69.152924 z" />
        <text
           id="text27357"
           class="data-text"
           dy="2.1475846e-038"
           style="text-anchor:middle">11</text>
      </g>
      <g
         id="g27359"
         class="circle"
         transform="translate(487.28621,352.84651)"
         style="stroke:#405040">
        <title
           id="title27361">hour:23 AVG of busy: 0.010439484416418983</title>
        <circle
           id="circle27363"
           r="74.349152"
           style="fill:#aba962"
           cx="0"
           cy="0"
           sodipodi:cx="0"
           sodipodi:cy="0"
           sodipodi:rx="74.349152"
           sodipodi:ry="74.349152"
           d="M 74.349152,0 C 74.349152,41.061903 41.061903,74.349152 0,74.349152 -41.061903,74.349152 -74.349152,41.061903 -74.349152,0 c 0,-41.061903 33.287249,-74.349152 74.349152,-74.349152 41.061903,0 74.349152,33.287249 74.349152,74.349152 z" />
        <text
           id="text27365"
           class="data-text"
           dy="2.1475846e-038"
           style="text-anchor:middle">23</text>
      </g>
      <g
         id="g27367"
         class="circle"
         transform="translate(138.50032,495.08774)"
         style="stroke:#405040">
        <title
           id="title27369">hour:14 AVG of busy: 0.0015329601389758045</title>
        <circle
           id="circle27371"
           r="28.490623"
           style="fill:#4fac4e"
           cx="0"
           cy="0"
           sodipodi:cx="0"
           sodipodi:cy="0"
           sodipodi:rx="28.490623"
           sodipodi:ry="28.490623"
           d="M 28.490623,0 C 28.490623,15.734937 15.734937,28.490623 0,28.490623 -15.734937,28.490623 -28.490623,15.734937 -28.490623,0 c 0,-15.734937 12.755686,-28.490623 28.490623,-28.490623 15.734937,0 28.490623,12.755686 28.490623,28.490623 z" />
        <text
           id="text27373"
           class="data-text"
           dy="2.1475846e-038"
           style="text-anchor:middle">14</text>
      </g>
      <g
         id="g27375"
         class="circle"
         transform="translate(249.81482,543.40119)"
         style="stroke:#405040">
        <title
           id="title27377">hour:16 AVG of busy: 0.0013672342993449565</title>
        <circle
           id="circle27379"
           r="26.906548"
           style="fill:#5e4236"
           cx="0"
           cy="0"
           sodipodi:cx="0"
           sodipodi:cy="0"
           sodipodi:rx="26.906548"
           sodipodi:ry="26.906548"
           d="M 26.906548,0 C 26.906548,14.860076 14.860076,26.906548 0,26.906548 -14.860076,26.906548 -26.906548,14.860076 -26.906548,0 c 0,-14.860076 12.046472,-26.906548 26.906548,-26.906548 14.860076,0 26.906548,12.046472 26.906548,26.906548 z" />
        <text
           id="text27381"
           class="data-text"
           dy="2.1475846e-038"
           style="text-anchor:middle">16</text>
      </g>
      <g
         id="g27383"
         class="circle"
         transform="translate(583.76256,451.48363)"
         style="stroke:#405040">
        <title
           id="title27385">hour:1 AVG of busy: 0.0055597637021749325</title>
        <circle
           id="circle27387"
           r="54.258114"
           style="fill:#23a736"
           cx="0"
           cy="0"
           sodipodi:cx="0"
           sodipodi:cy="0"
           sodipodi:rx="54.258114"
           sodipodi:ry="54.258114"
           d="M 54.258114,0 C 54.258114,29.965929 29.965929,54.258114 0,54.258114 -29.965929,54.258114 -54.258114,29.965929 -54.258114,0 c 0,-29.965929 24.292185,-54.258114 54.258114,-54.258114 29.965929,0 54.258114,24.292185 54.258114,54.258114 z" />
        <text
           id="text27389"
           class="data-text"
           dy="2.1475846e-038"
           style="text-anchor:middle">1</text>
      </g>
      <g
         id="g27391"
         class="circle"
         transform="translate(180.54396,130.54636)"
         style="stroke:#405040">
        <title
           id="title27393">hour:9 AVG of busy: 0.004862993628143243</title>
        <circle
           id="circle27395"
           r="50.744427"
           style="fill:#d3f5d2"
           cx="0"
           cy="0"
           sodipodi:cx="0"
           sodipodi:cy="0"
           sodipodi:rx="50.744427"
           sodipodi:ry="50.744427"
           d="M 50.744427,0 C 50.744427,28.025373 28.025373,50.744427 0,50.744427 -28.025373,50.744427 -50.744427,28.025373 -50.744427,0 c 0,-28.025373 22.719054,-50.744427 50.744427,-50.744427 28.025373,0 50.744427,22.719054 50.744427,50.744427 z" />
        <text
           id="text27397"
           class="data-text"
           dy="2.1475846e-038"
           style="text-anchor:middle">9</text>
      </g>
      <g
         id="g27399"
         class="circle"
         transform="translate(328.72864,352.84651)"
         style="stroke:#405040">
        <title
           id="title27401">hour:22 AVG of busy: 0.010578111205606876</title>
        <circle
           id="circle27403"
           r="74.841171"
           style="fill:#9a5536"
           cx="0"
           cy="0"
           sodipodi:cx="0"
           sodipodi:cy="0"
           sodipodi:rx="74.841171"
           sodipodi:ry="74.841171"
           d="M 74.841171,0 C 74.841171,41.333638 41.333638,74.841171 0,74.841171 -41.333638,74.841171 -74.841171,41.333638 -74.841171,0 c 0,-41.333638 33.507533,-74.841171 74.841171,-74.841171 41.333638,0 74.841171,33.507533 74.841171,74.841171 z" />
        <text
           id="text27405"
           class="data-text"
           dy="2.1475846e-038"
           style="text-anchor:middle">22</text>
      </g>
      <g
         id="g27407"
         class="circle"
         transform="translate(469.56537,493.51095)"
         style="stroke:#405040">
        <title
           id="title27409">hour:10 AVG of busy: 0.006366182700805991</title>
        <circle
           id="circle27411"
           r="58.059872"
           style="fill:#deebcd"
           cx="0"
           cy="0"
           sodipodi:cx="0"
           sodipodi:cy="0"
           sodipodi:rx="58.059872"
           sodipodi:ry="58.059872"
           d="m 58.059872,0 c 0,32.065582 -25.99429,58.059872 -58.059872,58.059872 -32.065582,0 -58.059872,-25.99429 -58.059872,-58.059872 0,-32.065582 25.99429,-58.059872 58.059872,-58.059872 32.065582,0 58.059872,25.99429 58.059872,58.059872 z" />
        <text
           id="text27413"
           class="data-text"
           dy="2.1475846e-038"
           style="text-anchor:middle">10</text>
      </g>
      <g
         id="g27415"
         class="circle"
         transform="translate(357.95285,582.14822)"
         style="stroke:#405040">
        <title
           id="title27417">hour:13 AVG of busy: 0.0008539868315159398</title>
        <circle
           id="circle27419"
           r="21.264839"
           style="fill:#5e63e7"
           cx="0"
           cy="0"
           sodipodi:cx="0"
           sodipodi:cy="0"
           sodipodi:rx="21.264839"
           sodipodi:ry="21.264839"
           d="m 21.264839,0 c 0,11.744246 -9.520593,21.264839 -21.264839,21.264839 -11.744246,0 -21.264839,-9.520593 -21.264839,-21.264839 0,-11.744246 9.520593,-21.264839 21.264839,-21.264839 11.744246,0 21.264839,9.520593 21.264839,21.264839 z" />
        <text
           id="text27421"
           class="data-text"
           dy="2.1475846e-038"
           style="text-anchor:middle">13</text>
      </g>
      <g
         id="g27423"
         class="circle"
         transform="translate(136.40348,222.4612)"
         style="stroke:#405040">
        <title
           id="title27425">hour:8 AVG of busy: 0.0033080535632631736</title>
        <circle
           id="circle27427"
           r="41.852631"
           style="fill:#7ad2d4"
           cx="0"
           cy="0"
           sodipodi:cx="0"
           sodipodi:cy="0"
           sodipodi:rx="41.852631"
           sodipodi:ry="41.852631"
           d="M 41.852631,0 C 41.852631,23.11457 23.11457,41.852631 0,41.852631 -23.11457,41.852631 -41.852631,23.11457 -41.852631,0 c 0,-23.11457 18.738061,-41.852631 41.852631,-41.852631 23.11457,0 41.852631,18.738061 41.852631,41.852631 z" />
        <text
           id="text27429"
           class="data-text"
           dy="2.1475846e-038"
           style="text-anchor:middle">8</text>
      </g>
    </g>
  </g>
  <style
     id="style2987">#y-axis-description {	
	font-family: &quot;kalinga&quot;;
	font-size: 10px;
}
.axis path, .axis line {
	fill: none;
	stroke: black;
	shape-rendering: crispEdges;
}
.axis text {
	font-family: &quot;kalinga&quot;;
	font-size: 12px;
}
.circle {
	stroke: #405040;
}</style>
  <style
     id="style3091">#y-axis-description {		font-family: &quot;kalinga&quot;;	font-size: 10px;}.axis path, .axis line {	fill: none;	stroke: black;	shape-rendering: crispEdges;}.axis text {	font-family: &quot;kalinga&quot;;	font-size: 12px;}.circle {	stroke: #405040;}</style>
  <style
     id="style14780">#y-axis-description {		font-family: &quot;kalinga&quot;;	font-size: 10px;}.axis path, .axis line {	fill: none;	stroke: black;	shape-rendering: crispEdges;}.axis text {	font-family: &quot;kalinga&quot;;	font-size: 12px;}.circle {	stroke: #405040;}</style>
  <style
     id="style27237">#y-axis-description {		font-family: &quot;kalinga&quot;;	font-size: 10px;}.axis path, .axis line {	fill: none;	stroke: black;	shape-rendering: crispEdges;}.axis text {	font-family: &quot;kalinga&quot;;	font-size: 12px;}.circle {	stroke: #405040;}</style>
</svg>
