<?xml version="1.0" encoding="UTF-8" standalone="no"?>
<!-- Created with Inkscape (http://www.inkscape.org/) -->

<svg
   xmlns:dc="http://purl.org/dc/elements/1.1/"
   xmlns:cc="http://creativecommons.org/ns#"
   xmlns:rdf="http://www.w3.org/1999/02/22-rdf-syntax-ns#"
   xmlns:svg="http://www.w3.org/2000/svg"
   xmlns="http://www.w3.org/2000/svg"
   xmlns:xlink="http://www.w3.org/1999/xlink"
   xmlns:sodipodi="http://sodipodi.sourceforge.net/DTD/sodipodi-0.dtd"
   xmlns:inkscape="http://www.inkscape.org/namespaces/inkscape"
   width="320.125"
   height="160.09375"
   id="svg2"
   version="1.1"
   inkscape:version="0.48.3.1 r9886"
   sodipodi:docname="Zeichnung.svg">
  <defs
     id="defs4">
    <linearGradient
       id="linearGradient4068">
      <stop
         style="stop-color:#ffefbb;stop-opacity:0;"
         offset="0"
         id="stop4070" />
      <stop
         style="stop-color:#ef8800;stop-opacity:0.32960895;"
         offset="1"
         id="stop4072" />
    </linearGradient>
    <radialGradient
       inkscape:collect="always"
       xlink:href="#linearGradient4068"
       id="radialGradient4074"
       cx="231.42857"
       cy="253.79076"
       fx="231.42857"
       fy="253.79076"
       r="160"
       gradientTransform="matrix(2.1256487,0.45974916,-0.16790709,0.77631789,-199.32257,250.36936)"
       gradientUnits="userSpaceOnUse" />
  </defs>
  <sodipodi:namedview
     id="base"
     pagecolor="#ffffff"
     bordercolor="#666666"
     borderopacity="1.0"
     inkscape:pageopacity="0.0"
     inkscape:pageshadow="2"
     inkscape:zoom="0.7"
     inkscape:cx="192.01528"
     inkscape:cy="96.102069"
     inkscape:document-units="px"
     inkscape:current-layer="layer1"
     showgrid="false"
     inkscape:window-width="1280"
     inkscape:window-height="972"
     inkscape:window-x="-8"
     inkscape:window-y="-8"
     inkscape:window-maximized="1"
     fit-margin-top="0"
     fit-margin-left="0"
     fit-margin-right="0"
     fit-margin-bottom="0" />
  <metadata
     id="metadata7">
    <rdf:RDF>
      <cc:Work
         rdf:about="">
        <dc:format>image/svg+xml</dc:format>
        <dc:type
           rdf:resource="http://purl.org/dc/dcmitype/StillImage" />
        <dc:title></dc:title>
      </cc:Work>
    </rdf:RDF>
  </metadata>
  <g
     inkscape:label="Ebene 1"
     inkscape:groupmode="layer"
     id="layer1"
     transform="translate(-89.9375,-473.75)">
    <rect
       style="fill:url(#radialGradient4074);fill-opacity:1;stroke:#ffffff;stroke-width:0;stroke-miterlimit:4;stroke-opacity:0.3938224;stroke-dasharray:none"
       id="rect3298"
       width="320"
       height="160"
       x="90.000008"
       y="473.79077" />
    <g
       id="g3196"
       transform="matrix(0.49184493,0,0,0.49184493,77.221536,394.29997)">
      <g
         id="g2989"
         class="circle"
         transform="translate(218.57847,487.11112)"
         style="stroke:#405040">
        <title
           id="title2991">(country:Israel, busy:0.164)</title>
        <circle
           id="circle2993"
           r="18.375328"
           style="fill:#1f77b4"
           cx="0"
           cy="0"
           sodipodi:cx="0"
           sodipodi:cy="0"
           sodipodi:rx="18.375328"
           sodipodi:ry="18.375328"
           d="m 18.375328,0 c 0,10.148413 -8.226915,18.375328 -18.375328,18.375328 -10.148413,0 -18.375328,-8.226915 -18.375328,-18.375328 0,-10.148413 8.226915,-18.375328 18.375328,-18.375328 10.148413,0 18.375328,8.226915 18.375328,18.375328 z" />
        <text
           id="text2995"
           class="data-text"
           dy="2.1475846e-038"
           style="text-anchor:middle">Israe</text>
      </g>
      <g
         id="g2997"
         class="circle"
         transform="translate(451.28817,457.73507)"
         style="stroke:#405040">
        <title
           id="title2999">(country:Japan, busy:0)</title>
        <circle
           id="circle3001"
           r="0"
           style="fill:#aec7e8"
           cx="0"
           cy="0"
           sodipodi:cx="0"
           sodipodi:cy="0"
           sodipodi:rx="0"
           sodipodi:ry="0" />
        <text
           id="text3003"
           class="data-text"
           dy="2.1475846e-038"
           style="text-anchor:middle" />
      </g>
      <g
         id="g3005"
         class="circle"
         transform="translate(413.92385,454.30875)"
         style="stroke:#405040">
        <title
           id="title3007">(country:Malaysia, busy:0.002)</title>
        <circle
           id="circle3009"
           r="2.0292156"
           style="fill:#ff7f0e"
           cx="0"
           cy="0"
           sodipodi:cx="0"
           sodipodi:cy="0"
           sodipodi:rx="2.0292156"
           sodipodi:ry="2.0292156"
           d="M 2.0292156,0 C 2.0292156,1.1207048 1.1207048,2.0292156 0,2.0292156 -1.1207048,2.0292156 -2.0292156,1.1207048 -2.0292156,0 c 0,-1.1207048 0.9085108,-2.0292156 2.0292156,-2.0292156 1.1207048,0 2.0292156,0.9085108 2.0292156,2.0292156 z" />
        <text
           id="text3011"
           class="data-text"
           dy="2.1475846e-038"
           style="text-anchor:middle" />
      </g>
      <g
         id="g3013"
         class="circle"
         transform="translate(312.5167,382.46834)"
         style="stroke:#405040">
        <title
           id="title3015">(country:Australia, busy:6.151)</title>
        <circle
           id="circle3017"
           r="112.53459"
           style="fill:#ffbb78"
           cx="0"
           cy="0"
           sodipodi:cx="0"
           sodipodi:cy="0"
           sodipodi:rx="112.53459"
           sodipodi:ry="112.53459"
           d="M 112.53459,0 C 112.53459,62.151139 62.151139,112.53459 0,112.53459 -62.151139,112.53459 -112.53459,62.151139 -112.53459,0 c 0,-62.151139 50.383451,-112.53459 112.53459,-112.53459 62.151139,0 112.53459,50.383451 112.53459,112.53459 z" />
        <text
           id="text3019"
           class="data-text"
           dy="2.1475846e-038"
           style="text-anchor:middle">Australia</text>
      </g>
      <g
         id="g3021"
         class="circle"
         transform="translate(457.62568,465.09423)"
         style="stroke:#405040">
        <title
           id="title3023">(country:Ireland, busy:0)</title>
        <circle
           id="circle3025"
           r="0"
           style="fill:#2ca02c"
           cx="0"
           cy="0"
           sodipodi:cx="0"
           sodipodi:cy="0"
           sodipodi:rx="0"
           sodipodi:ry="0" />
        <text
           id="text3027"
           class="data-text"
           dy="2.1475846e-038"
           style="text-anchor:middle" />
      </g>
      <g
         id="g3029"
         class="circle"
         transform="translate(255.97032,194.52645)"
         style="stroke:#405040">
        <title
           id="title3031">(country:Spain, busy:2.661)</title>
        <circle
           id="circle3033"
           r="74.017708"
           style="fill:#98df8a"
           cx="0"
           cy="0"
           sodipodi:cx="0"
           sodipodi:cy="0"
           sodipodi:rx="74.017708"
           sodipodi:ry="74.017708"
           d="M 74.017708,0 C 74.017708,40.878851 40.878851,74.017708 0,74.017708 -40.878851,74.017708 -74.017708,40.878851 -74.017708,0 c 0,-40.878851 33.138857,-74.017708 74.017708,-74.017708 40.878851,0 74.017708,33.138857 74.017708,74.017708 z" />
        <text
           id="text3035"
           class="data-text"
           dy="2.1475846e-038"
           style="text-anchor:middle">Spain</text>
      </g>
      <g
         id="g3037"
         class="circle"
         transform="translate(256.99361,509.46821)"
         style="stroke:#405040">
        <title
           id="title3039">(country:Canada, busy:0.13)</title>
        <circle
           id="circle3041"
           r="16.36006"
           style="fill:#d62728"
           cx="0"
           cy="0"
           sodipodi:cx="0"
           sodipodi:cy="0"
           sodipodi:rx="16.36006"
           sodipodi:ry="16.36006"
           d="M 16.36006,0 C 16.36006,9.0354115 9.0354115,16.36006 0,16.36006 -9.0354115,16.36006 -16.36006,9.0354115 -16.36006,0 c 0,-9.0354115 7.3246485,-16.36006 16.36006,-16.36006 9.0354115,0 16.36006,7.3246485 16.36006,16.36006 z" />
        <text
           id="text3043"
           class="data-text"
           dy="2.1475846e-038"
           style="text-anchor:middle">Canad</text>
      </g>
      <g
         id="g3045"
         class="circle"
         transform="translate(136.24225,296.80824)"
         style="stroke:#405040">
        <title
           id="title3047">(country:United States, busy:2.641)</title>
        <circle
           id="circle3049"
           r="73.739021"
           style="fill:#ff9896"
           cx="0"
           cy="0"
           sodipodi:cx="0"
           sodipodi:cy="0"
           sodipodi:rx="73.739021"
           sodipodi:ry="73.739021"
           d="M 73.739021,0 C 73.739021,40.724937 40.724937,73.739021 0,73.739021 -40.724937,73.739021 -73.739021,40.724937 -73.739021,0 c 0,-40.724937 33.014084,-73.739021 73.739021,-73.739021 40.724937,0 73.739021,33.014084 73.739021,73.739021 z" />
        <text
           id="text3051"
           class="data-text"
           dy="2.1475846e-038"
           style="text-anchor:middle">United States</text>
      </g>
      <g
         id="g3053"
         class="circle"
         transform="translate(352.68545,507.4955)"
         style="stroke:#405040">
        <title
           id="title3055">(country:Russian Federation, busy:0.04)</title>
        <circle
           id="circle3057"
           r="9.0749283"
           style="fill:#9467bd"
           cx="0"
           cy="0"
           sodipodi:cx="0"
           sodipodi:cy="0"
           sodipodi:rx="9.0749283"
           sodipodi:ry="9.0749283"
           d="M 9.0749283,0 C 9.0749283,5.0119445 5.0119445,9.0749283 0,9.0749283 -5.0119445,9.0749283 -9.0749283,5.0119445 -9.0749283,0 c 0,-5.0119445 4.0629838,-9.0749283 9.0749283,-9.0749283 5.0119445,0 9.0749283,4.0629838 9.0749283,9.0749283 z" />
        <text
           id="text3059"
           class="data-text"
           dy="2.1475846e-038"
           style="text-anchor:middle">Ru</text>
      </g>
      <g
         id="g3061"
         class="circle"
         transform="translate(377.24539,495.91436)"
         style="stroke:#405040">
        <title
           id="title3063">(country:Korea, Republic of, busy:0.034)</title>
        <circle
           id="circle3065"
           r="8.3666706"
           style="fill:#c5b0d5"
           cx="0"
           cy="0"
           sodipodi:cx="0"
           sodipodi:cy="0"
           sodipodi:rx="8.3666706"
           sodipodi:ry="8.3666706"
           d="m 8.3666706,0 c 0,4.6207846 -3.745886,8.3666706 -8.3666706,8.3666706 -4.6207846,0 -8.3666706,-3.745886 -8.3666706,-8.3666706 0,-4.6207846 3.745886,-8.3666706 8.3666706,-8.3666706 4.6207846,0 8.3666706,3.745886 8.3666706,8.3666706 z" />
        <text
           id="text3067"
           class="data-text"
           dy="2.1475846e-038"
           style="text-anchor:middle">Ko</text>
      </g>
      <g
         id="g3069"
         class="circle"
         transform="translate(437.30846,438.74844)"
         style="stroke:#405040">
        <title
           id="title3071">(country:Algeria, busy:0.001)</title>
        <circle
           id="circle3073"
           r="1.4348722"
           style="fill:#8c564b"
           cx="0"
           cy="0"
           sodipodi:cx="0"
           sodipodi:cy="0"
           sodipodi:rx="1.4348722"
           sodipodi:ry="1.4348722"
           d="M 1.4348722,0 C 1.4348722,0.79245801 0.79245801,1.4348722 0,1.4348722 -0.79245801,1.4348722 -1.4348722,0.79245801 -1.4348722,0 c 0,-0.79245801 0.64241419,-1.4348722 1.4348722,-1.4348722 0.79245801,0 1.4348722,0.64241419 1.4348722,1.4348722 z" />
        <text
           id="text3075"
           class="data-text"
           dy="2.1475846e-038"
           style="text-anchor:middle" />
      </g>
      <g
         id="g3077"
         class="circle"
         transform="translate(136.63085,444.52429)"
         style="stroke:#405040">
        <title
           id="title3079">(country:Germany, busy:2.006)</title>
        <circle
           id="circle3081"
           r="64.26561"
           style="fill:#c49c94"
           cx="0"
           cy="0"
           sodipodi:cx="0"
           sodipodi:cy="0"
           sodipodi:rx="64.26561"
           sodipodi:ry="64.26561"
           d="M 64.26561,0 C 64.26561,35.492916 35.492916,64.26561 0,64.26561 -35.492916,64.26561 -64.26561,35.492916 -64.26561,0 c 0,-35.492916 28.772694,-64.26561 64.26561,-64.26561 35.492916,0 64.26561,28.772694 64.26561,64.26561 z" />
        <text
           id="text3083"
           class="data-text"
           dy="2.1475846e-038"
           style="text-anchor:middle">Germany</text>
      </g>
      <g
         id="g3085"
         class="circle"
         transform="translate(421.24937,442.64859)"
         style="stroke:#405040">
        <title
           id="title3087">(country:Sweden, busy:0.002)</title>
        <circle
           id="circle3089"
           r="2.0292156"
           style="fill:#e377c2"
           cx="0"
           cy="0"
           sodipodi:cx="0"
           sodipodi:cy="0"
           sodipodi:rx="2.0292156"
           sodipodi:ry="2.0292156"
           d="M 2.0292156,0 C 2.0292156,1.1207048 1.1207048,2.0292156 0,2.0292156 -1.1207048,2.0292156 -2.0292156,1.1207048 -2.0292156,0 c 0,-1.1207048 0.9085108,-2.0292156 2.0292156,-2.0292156 1.1207048,0 2.0292156,0.9085108 2.0292156,2.0292156 z" />
        <text
           id="text3091"
           class="data-text"
           dy="2.1475846e-038"
           style="text-anchor:middle" />
      </g>
      <g
         id="g3093"
         class="circle"
         transform="translate(443.65442,449.61246)"
         style="stroke:#405040">
        <title
           id="title3095">(country:Turkey, busy:0.001)</title>
        <circle
           id="circle3097"
           r="1.4348722"
           style="fill:#f7b6d2"
           cx="0"
           cy="0"
           sodipodi:cx="0"
           sodipodi:cy="0"
           sodipodi:rx="1.4348722"
           sodipodi:ry="1.4348722"
           d="M 1.4348722,0 C 1.4348722,0.79245801 0.79245801,1.4348722 0,1.4348722 -0.79245801,1.4348722 -1.4348722,0.79245801 -1.4348722,0 c 0,-0.79245801 0.64241419,-1.4348722 1.4348722,-1.4348722 0.79245801,0 1.4348722,0.64241419 1.4348722,1.4348722 z" />
        <text
           id="text3099"
           class="data-text"
           dy="2.1475846e-038"
           style="text-anchor:middle" />
      </g>
      <g
         id="g3101"
         class="circle"
         transform="translate(294.06963,514.82445)"
         style="stroke:#405040">
        <title
           id="title3103">(country:China, busy:0.063)</title>
        <circle
           id="circle3105"
           r="11.388945"
           style="fill:#7f7f7f"
           cx="0"
           cy="0"
           sodipodi:cx="0"
           sodipodi:cy="0"
           sodipodi:rx="11.388945"
           sodipodi:ry="11.388945"
           d="M 11.388945,0 C 11.388945,6.2899404 6.2899404,11.388945 0,11.388945 -6.2899404,11.388945 -11.388945,6.2899404 -11.388945,0 c 0,-6.2899404 5.0990046,-11.388945 11.388945,-11.388945 6.2899404,0 11.388945,5.0990046 11.388945,11.388945 z" />
        <text
           id="text3107"
           class="data-text"
           dy="2.1475846e-038"
           style="text-anchor:middle">Chi</text>
      </g>
      <g
         id="g3109"
         class="circle"
         transform="translate(430.38636,204.77379)"
         style="stroke:#405040">
        <title
           id="title3111">(country:South Africa, busy:4.021)</title>
        <circle
           id="circle3113"
           r="90.987183"
           style="fill:#c7c7c7"
           cx="0"
           cy="0"
           sodipodi:cx="0"
           sodipodi:cy="0"
           sodipodi:rx="90.987183"
           sodipodi:ry="90.987183"
           d="m 90.987183,0 c 0,50.250833 -40.73635,90.987183 -90.987183,90.987183 -50.250833,0 -90.987183,-40.73635 -90.987183,-90.987183 0,-50.250833 40.73635,-90.987183 90.987183,-90.987183 50.250833,0 90.987183,40.73635 90.987183,90.987183 z" />
        <text
           id="text3115"
           class="data-text"
           dy="2.1475846e-038"
           style="text-anchor:middle">South Africa</text>
      </g>
      <g
         id="g3117"
         class="circle"
         transform="translate(464.53262,471.92179)"
         style="stroke:#405040">
        <title
           id="title3119">(country:Mexico, busy:0)</title>
        <circle
           id="circle3121"
           r="0"
           style="fill:#bcbd22"
           cx="0"
           cy="0"
           sodipodi:cx="0"
           sodipodi:cy="0"
           sodipodi:rx="0"
           sodipodi:ry="0" />
        <text
           id="text3123"
           class="data-text"
           dy="2.1475846e-038"
           style="text-anchor:middle" />
      </g>
      <g
         id="g3125"
         class="circle"
         transform="translate(427.23989,430.24955)"
         style="stroke:#405040">
        <title
           id="title3127">(country:Belgium, busy:0.002)</title>
        <circle
           id="circle3129"
           r="2.0292156"
           style="fill:#dbdb8d"
           cx="0"
           cy="0"
           sodipodi:cx="0"
           sodipodi:cy="0"
           sodipodi:rx="2.0292156"
           sodipodi:ry="2.0292156"
           d="M 2.0292156,0 C 2.0292156,1.1207048 1.1207048,2.0292156 0,2.0292156 -1.1207048,2.0292156 -2.0292156,1.1207048 -2.0292156,0 c 0,-1.1207048 0.9085108,-2.0292156 2.0292156,-2.0292156 1.1207048,0 2.0292156,0.9085108 2.0292156,2.0292156 z" />
        <text
           id="text3131"
           class="data-text"
           dy="2.1475846e-038"
           style="text-anchor:middle" />
      </g>
      <g
         id="g3133"
         class="circle"
         transform="translate(471.96455,478.17381)"
         style="stroke:#405040">
        <title
           id="title3135">(country:Italy, busy:0)</title>
        <circle
           id="circle3137"
           r="0"
           style="fill:#17becf"
           cx="0"
           cy="0"
           sodipodi:cx="0"
           sodipodi:cy="0"
           sodipodi:rx="0"
           sodipodi:ry="0" />
        <text
           id="text3139"
           class="data-text"
           dy="2.1475846e-038"
           style="text-anchor:middle" />
      </g>
      <g
         id="g3141"
         class="circle"
         transform="translate(479.87365,483.81008)"
         style="stroke:#405040">
        <title
           id="title3143">(country:Taiwan, busy:0)</title>
        <circle
           id="circle3145"
           r="0"
           style="fill:#9edae5"
           cx="0"
           cy="0"
           sodipodi:cx="0"
           sodipodi:cy="0"
           sodipodi:rx="0"
           sodipodi:ry="0" />
        <text
           id="text3147"
           class="data-text"
           dy="2.1475846e-038"
           style="text-anchor:middle" />
      </g>
      <g
         id="g3149"
         class="circle"
         transform="translate(546.12999,382.46834)"
         style="stroke:#405040">
        <title
           id="title3151">(country:other, busy:6.024)</title>
        <circle
           id="circle3153"
           r="111.36678"
           style="fill:#1f77b4"
           cx="0"
           cy="0"
           sodipodi:cx="0"
           sodipodi:cy="0"
           sodipodi:rx="111.36678"
           sodipodi:ry="111.36678"
           d="M 111.36678,0 C 111.36678,61.506176 61.506176,111.36678 0,111.36678 -61.506176,111.36678 -111.36678,61.506176 -111.36678,0 c 0,-61.506176 49.860604,-111.36678 111.36678,-111.36678 61.506176,0 111.36678,49.860604 111.36678,111.36678 z" />
        <text
           id="text3155"
           class="data-text"
           dy="2.1475846e-038"
           style="text-anchor:middle">other</text>
      </g>
      <g
         id="g3157"
         class="circle"
         transform="translate(488.20904,488.79432)"
         style="stroke:#405040">
        <title
           id="title3159">(country:Ukraine, busy:0)</title>
        <circle
           id="circle3161"
           r="0"
           style="fill:#aec7e8"
           cx="0"
           cy="0"
           sodipodi:cx="0"
           sodipodi:cy="0"
           sodipodi:rx="0"
           sodipodi:ry="0" />
        <text
           id="text3163"
           class="data-text"
           dy="2.1475846e-038"
           style="text-anchor:middle" />
      </g>
      <g
         id="g3165"
         class="circle"
         transform="translate(405.61387,467.43721)"
         style="stroke:#405040">
        <title
           id="title3167">(country:United Kingdom, busy:0.007)</title>
        <circle
           id="circle3169"
           r="3.7963147"
           style="fill:#ff7f0e"
           cx="0"
           cy="0"
           sodipodi:cx="0"
           sodipodi:cy="0"
           sodipodi:rx="3.7963147"
           sodipodi:ry="3.7963147"
           d="m 3.7963147,0 c 0,2.0966467 -1.699668,3.7963147 -3.7963147,3.7963147 -2.0966467,0 -3.7963147,-1.699668 -3.7963147,-3.7963147 0,-2.0966467 1.699668,-3.7963147 3.7963147,-3.7963147 2.0966467,0 3.7963147,1.699668 3.7963147,3.7963147 z" />
        <text
           id="text3171"
           class="data-text"
           dy="2.1475846e-038"
           style="text-anchor:middle">U</text>
      </g>
      <g
         id="g3173"
         class="circle"
         transform="translate(393.06289,480.07724)"
         style="stroke:#405040">
        <title
           id="title3175">(country:Brazil, busy:0.009)</title>
        <circle
           id="circle3177"
           r="4.3046165"
           style="fill:#ffbb78"
           cx="0"
           cy="0"
           sodipodi:cx="0"
           sodipodi:cy="0"
           sodipodi:rx="4.3046165"
           sodipodi:ry="4.3046165"
           d="M 4.3046165,0 C 4.3046165,2.377374 2.377374,4.3046165 0,4.3046165 -2.377374,4.3046165 -4.3046165,2.377374 -4.3046165,0 c 0,-2.377374 1.9272425,-4.3046165 4.3046165,-4.3046165 2.377374,0 4.3046165,1.9272425 4.3046165,4.3046165 z" />
        <text
           id="text3179"
           class="data-text"
           dy="2.1475846e-038"
           style="text-anchor:middle">B</text>
      </g>
      <g
         id="g3181"
         class="circle"
         transform="translate(324.88736,513.86558)"
         style="stroke:#405040">
        <title
           id="title3183">(country:France, busy:0.046)</title>
        <circle
           id="circle3185"
           r="9.7317762"
           style="fill:#2ca02c"
           cx="0"
           cy="0"
           sodipodi:cx="0"
           sodipodi:cy="0"
           sodipodi:rx="9.7317762"
           sodipodi:ry="9.7317762"
           d="M 9.7317762,0 C 9.7317762,5.3747116 5.3747116,9.7317762 0,9.7317762 -5.3747116,9.7317762 -9.7317762,5.3747116 -9.7317762,0 c 0,-5.3747116 4.3570646,-9.7317762 9.7317762,-9.7317762 5.3747116,0 9.7317762,4.3570646 9.7317762,9.7317762 z" />
        <text
           id="text3187"
           class="data-text"
           dy="2.1475846e-038"
           style="text-anchor:middle">Fra</text>
      </g>
    </g>
  </g>
  <style
     id="style2987">#y-axis-description {	
	font-family: &quot;kalinga&quot;;
	font-size: 10px;
}
.axis path, .axis line {
	fill: none;
	stroke: black;
	shape-rendering: crispEdges;
}
.axis text {
	font-family: &quot;kalinga&quot;;
	font-size: 12px;
}
.circle {
	stroke: #405040;
}</style>
</svg>
